<?xml version="1.0" standalone="no"?>
<!DOCTYPE svg PUBLIC "-//W3C//DTD SVG 20010904//EN"
 "http://www.w3.org/TR/2001/REC-SVG-20010904/DTD/svg10.dtd">
<svg version="1.0" xmlns="http://www.w3.org/2000/svg"
 width="600.000000pt" height="600.000000pt" viewBox="0 0 600.000000 600.000000"
 preserveAspectRatio="xMidYMid meet">
<metadata>
Created by potrace 1.11, written by Peter Selinger 2001-2013
</metadata>
<g transform="translate(0.000000,600.000000) scale(0.100000,-0.100000)"
fill="#000000" stroke="none">
<path d="M2706 5992 c-7 -7 -47 -12 -98 -14 -15 0 -26 -3 -24 -7 2 -3 -10 -6
-27 -5 -18 1 -35 -4 -39 -10 -5 -7 -8 -7 -8 3 0 9 -4 10 -12 4 -7 -6 -20 -11
-28 -12 -34 -2 -56 -7 -68 -15 -7 -4 -12 -2 -12 6 0 8 -3 9 -8 3 -7 -10 -27
-17 -49 -18 -7 0 -13 -5 -13 -11 0 -6 -4 -4 -10 4 -8 13 -10 12 -15 -1 -3 -9
-16 -15 -28 -14 -12 1 -27 -2 -33 -6 -6 -5 -25 -11 -42 -13 -18 -2 -38 -8 -45
-15 -8 -6 -17 -8 -20 -4 -4 3 -14 0 -24 -8 -15 -12 -16 -12 -8 1 6 12 5 13 -6
3 -7 -7 -21 -13 -30 -13 -10 0 -19 -4 -21 -10 -1 -5 -15 -11 -30 -12 -16 -1
-28 -6 -28 -11 0 -4 -4 -6 -8 -3 -5 3 -21 -2 -36 -10 -16 -7 -35 -14 -42 -14
-16 0 -49 -17 -78 -40 -11 -8 -17 -10 -13 -4 3 6 0 11 -8 11 -8 0 -13 -5 -12
-11 1 -6 -4 -10 -10 -9 -7 2 -13 -2 -13 -9 0 -6 -3 -8 -7 -5 -3 4 -12 2 -20
-4 -7 -6 -13 -8 -13 -3 0 4 -7 -1 -16 -12 -8 -10 -12 -12 -8 -4 7 12 5 13 -8
3 -8 -7 -19 -9 -23 -5 -5 4 -5 2 -2 -4 6 -10 -10 -23 -28 -24 -15 0 -105 -54
-105 -62 0 -5 -4 -7 -9 -4 -5 3 -12 -1 -15 -10 -3 -8 -10 -13 -15 -10 -10 7
-71 -25 -71 -36 0 -5 -5 -8 -11 -8 -7 0 -18 -8 -26 -17 -9 -11 -12 -12 -7 -3
7 14 -43 -24 -58 -45 -5 -6 -8 -4 -8 5 -1 9 -6 5 -15 -10 -8 -14 -15 -20 -15
-15 0 6 -5 2 -11 -8 -6 -9 -14 -15 -20 -12 -5 4 -9 1 -9 -5 0 -6 -8 -14 -17
-17 -26 -10 -43 -29 -35 -38 4 -5 2 -5 -5 -1 -6 3 -22 -4 -34 -16 -12 -13 -19
-16 -15 -8 5 9 2 8 -7 -2 -8 -10 -17 -18 -20 -18 -13 0 -47 -35 -47 -47 0 -7
-3 -12 -7 -12 -18 3 -34 -2 -30 -8 4 -8 -28 -43 -38 -43 -3 0 -10 0 -17 0 -6
0 -9 -3 -5 -6 8 -8 -25 -44 -35 -38 -5 3 -7 0 -6 -8 2 -7 -3 -12 -9 -10 -7 1
-13 -3 -13 -9 0 -7 -27 -38 -61 -70 -33 -33 -58 -59 -54 -59 3 0 0 -6 -7 -14
-7 -8 -15 -13 -18 -11 -3 2 -10 -3 -17 -10 -10 -11 -10 -15 0 -18 7 -3 4 -6
-6 -6 -10 -1 -22 -13 -27 -27 -6 -14 -14 -22 -20 -19 -5 3 -10 -3 -10 -14 0
-15 -4 -19 -17 -14 -10 4 -14 2 -9 -5 3 -6 -2 -19 -12 -29 -11 -10 -25 -28
-31 -41 -7 -12 -17 -20 -23 -16 -7 5 -8 2 -3 -6 5 -8 1 -18 -10 -27 -11 -7
-16 -13 -12 -13 4 0 -1 -10 -13 -22 -11 -12 -20 -28 -20 -35 0 -8 -5 -11 -12
-7 -8 5 -9 2 -5 -10 4 -10 3 -15 -3 -11 -5 3 -16 -10 -24 -30 -8 -19 -19 -35
-23 -35 -5 0 -15 -16 -22 -35 -7 -21 -17 -33 -23 -29 -6 4 -8 2 -4 -4 3 -6 2
-13 -4 -17 -6 -4 -8 -10 -5 -15 3 -4 -2 -11 -11 -14 -8 -3 -13 -10 -9 -15 3
-5 -3 -16 -13 -23 -11 -7 -18 -21 -16 -31 1 -10 -4 -21 -12 -24 -8 -3 -14 -13
-14 -23 0 -10 -7 -26 -16 -34 -8 -9 -12 -20 -9 -26 3 -5 -1 -10 -9 -10 -10 0
-13 -6 -10 -15 4 -9 0 -15 -7 -15 -12 0 -12 -2 -1 -9 11 -7 10 -9 -3 -15 -9
-3 -14 -10 -11 -15 3 -5 -1 -14 -9 -21 -8 -7 -12 -16 -9 -21 3 -5 0 -9 -6 -9
-6 0 -8 -4 -5 -10 3 -5 2 -10 -4 -10 -6 0 -8 -7 -5 -15 4 -8 1 -15 -6 -15 -7
0 -10 -7 -6 -15 3 -8 1 -15 -4 -15 -5 0 -7 -6 -4 -14 3 -8 1 -17 -5 -21 -6 -3
-11 -15 -11 -25 0 -10 -4 -20 -10 -22 -5 -1 -11 -15 -12 -30 -1 -16 -6 -28
-11 -28 -4 0 -6 -4 -2 -9 3 -5 1 -12 -5 -16 -6 -4 -8 -10 -5 -15 3 -5 1 -11
-5 -15 -5 -3 -10 -20 -10 -36 0 -17 -4 -28 -9 -25 -4 3 -7 -5 -7 -17 1 -12 -5
-31 -13 -41 -14 -17 -14 -18 -1 -11 12 6 12 5 3 -5 -6 -7 -9 -19 -6 -26 3 -8
0 -14 -6 -14 -6 0 -8 -7 -4 -17 4 -9 2 -14 -3 -10 -6 3 -9 -9 -9 -29 1 -19 -3
-34 -8 -34 -5 0 -3 -8 4 -17 8 -9 9 -14 2 -10 -16 10 -22 -14 -11 -37 8 -14 7
-17 -3 -11 -9 6 -11 2 -7 -13 4 -12 2 -22 -3 -22 -5 0 -8 -3 -8 -7 1 -5 1 -10
-1 -13 -1 -3 -4 -27 -6 -55 -7 -79 -9 -89 -16 -100 -4 -6 -3 -17 2 -25 5 -9 5
-19 -2 -27 -6 -7 -7 -13 -3 -13 4 0 2 -6 -4 -14 -8 -10 -9 -16 -1 -21 6 -4 7
-12 0 -24 -6 -12 -5 -22 2 -29 7 -7 8 -12 2 -12 -12 0 -13 -368 -1 -387 5 -8
3 -13 -4 -13 -8 0 -7 -5 2 -17 12 -15 12 -16 -1 -8 -12 6 -13 5 -2 -6 16 -17
16 -32 0 -23 -10 6 -10 5 -1 -8 7 -8 11 -29 9 -46 -2 -18 0 -32 4 -32 5 0 6
-10 3 -21 -4 -15 0 -27 13 -37 16 -13 16 -14 2 -9 -10 4 -18 2 -18 -3 0 -6 4
-10 10 -10 5 0 7 -7 4 -15 -4 -8 -1 -15 5 -15 7 0 8 -8 2 -22 -9 -24 -4 -51 8
-44 3 3 6 -8 5 -22 0 -15 4 -47 11 -72 6 -25 11 -52 10 -60 0 -8 3 -18 8 -21
5 -3 10 -26 11 -50 1 -23 8 -45 14 -47 6 -2 8 -10 5 -19 -5 -12 -3 -14 8 -8
11 7 11 5 -1 -10 -11 -14 -12 -17 -1 -11 9 6 12 5 9 -5 -3 -8 2 -23 11 -33 9
-11 10 -16 4 -12 -7 4 -13 2 -13 -3 0 -6 5 -11 12 -11 6 0 8 -3 5 -7 -4 -3 0
-17 9 -31 11 -17 12 -22 3 -17 -8 5 -6 0 3 -11 13 -15 15 -23 7 -31 -8 -8 -7
-13 2 -18 8 -6 10 -4 4 5 -6 9 -4 11 4 6 7 -5 10 -14 7 -22 -3 -8 1 -17 10
-21 13 -5 13 -7 2 -14 -10 -7 -10 -9 0 -9 6 0 12 -11 12 -25 0 -14 5 -25 11
-25 6 0 9 -9 6 -20 -3 -11 -1 -18 4 -15 4 3 12 -7 15 -22 4 -15 15 -43 25 -60
10 -18 16 -33 12 -33 -3 0 1 -8 10 -18 10 -10 14 -22 10 -25 -3 -4 0 -7 7 -7
7 0 11 -3 7 -6 -3 -4 1 -13 9 -21 8 -8 12 -19 9 -24 -4 -5 -1 -9 5 -9 6 0 8
-4 5 -10 -3 -5 -1 -10 4 -10 6 0 10 -6 8 -12 -1 -7 3 -12 10 -11 6 1 10 -5 9
-14 -3 -21 15 -43 29 -35 6 3 3 -3 -5 -13 -9 -11 -10 -16 -2 -11 7 4 12 2 12
-4 0 -6 7 -18 15 -27 8 -8 12 -19 9 -25 -4 -7 -2 -8 4 -4 11 6 16 -6 13 -26 0
-5 4 -8 9 -8 6 0 10 -7 10 -15 0 -8 7 -15 15 -15 9 0 12 -6 9 -15 -4 -8 -1
-15 5 -15 6 0 11 -6 11 -13 0 -7 9 -19 19 -27 11 -7 18 -17 15 -22 -3 -4 2
-11 10 -14 9 -3 16 -12 16 -20 0 -7 9 -19 20 -27 11 -8 17 -17 13 -20 -3 -4
-1 -7 6 -7 7 0 10 -4 7 -8 -2 -4 9 -18 25 -31 16 -13 29 -28 29 -33 0 -9 22
-36 78 -94 12 -13 22 -28 22 -34 0 -6 4 -8 10 -5 5 3 10 -1 10 -10 0 -9 9 -19
20 -22 18 -5 25 -15 21 -36 -1 -5 3 -6 7 -3 5 3 20 -8 32 -24 12 -16 28 -27
34 -23 6 3 8 3 4 -1 -4 -5 10 -24 30 -44 20 -21 36 -41 34 -46 -2 -5 4 -6 13
-3 9 4 15 1 15 -8 0 -8 4 -15 10 -15 5 0 27 -18 50 -41 22 -22 40 -35 41 -27
0 7 4 3 9 -9 5 -13 15 -23 21 -23 6 0 20 -10 30 -22 11 -11 19 -18 19 -14 0 4
6 2 13 -4 49 -41 61 -49 70 -43 5 3 7 1 4 -4 -7 -10 20 -28 36 -25 4 1 7 -5 7
-14 0 -10 6 -14 15 -11 8 4 17 1 21 -5 5 -7 2 -8 -7 -4 -8 4 -5 1 5 -8 10 -8
22 -13 26 -11 5 3 11 -2 14 -11 3 -8 10 -13 15 -10 5 3 12 -1 15 -10 3 -8 10
-13 15 -10 5 3 12 -1 15 -10 3 -8 10 -12 16 -9 5 3 10 1 10 -4 0 -6 7 -11 15
-11 9 0 25 -9 37 -20 12 -11 30 -20 40 -20 10 0 18 -4 18 -10 0 -5 5 -10 12
-10 6 0 20 -8 31 -17 11 -10 17 -12 13 -6 -5 9 -2 11 8 7 9 -3 13 -10 10 -15
-3 -5 4 -9 16 -9 13 0 19 -4 14 -12 -5 -7 -3 -8 5 -3 8 4 25 -2 43 -15 17 -13
27 -17 23 -10 -4 7 12 1 37 -14 25 -14 52 -26 61 -26 10 0 17 -5 17 -11 0 -5
3 -8 8 -6 4 3 24 -3 45 -13 20 -10 34 -13 30 -7 -3 7 3 4 14 -6 11 -9 23 -14
26 -11 4 4 13 2 20 -4 8 -7 17 -9 20 -5 4 3 7 1 7 -6 0 -8 7 -11 15 -7 8 3 15
1 15 -5 0 -6 5 -7 10 -4 6 3 10 2 10 -4 0 -5 9 -8 20 -6 11 2 22 0 25 -5 3 -4
16 -7 30 -6 13 2 22 -1 19 -5 -3 -5 -2 -10 3 -10 4 -1 17 -3 28 -4 11 -2 34
-8 52 -13 17 -6 34 -8 37 -4 3 3 6 0 6 -6 0 -6 9 -9 20 -7 11 2 20 0 20 -5 0
-4 9 -6 20 -3 12 3 20 0 20 -7 0 -9 4 -9 13 -2 8 7 17 6 30 -3 10 -7 27 -11
38 -8 10 3 26 0 34 -7 8 -7 21 -10 30 -7 8 4 17 2 20 -2 3 -5 14 -7 25 -4 11
3 26 1 33 -5 8 -7 18 -7 27 -2 9 5 19 5 26 -1 7 -5 24 -8 38 -5 15 3 26 0 26
-6 0 -7 4 -7 13 1 8 6 16 9 19 6 10 -11 114 -11 127 -1 10 8 13 8 8 0 -7 -13
131 -13 152 0 9 6 12 5 8 -1 -9 -15 224 -5 242 10 12 9 13 9 7 0 -4 -8 -1 -13
8 -13 9 0 16 5 16 11 0 5 6 7 12 3 17 -11 48 -12 42 -2 -4 6 70 14 99 9 4 0 7
3 7 7 0 4 12 8 28 7 15 0 33 6 40 15 8 8 11 9 7 3 -4 -8 0 -13 9 -13 9 0 16 4
16 9 0 5 12 9 28 10 46 1 62 4 62 11 0 4 16 6 34 5 19 -1 33 2 30 7 -3 4 5 9
18 9 13 1 28 2 33 4 6 1 16 3 23 3 7 1 11 6 8 11 -3 4 6 7 19 5 14 -1 25 2 25
7 0 5 3 8 8 8 15 -3 72 14 72 21 0 5 11 7 25 5 14 -1 25 2 25 6 0 5 9 9 20 9
11 0 20 5 20 11 0 5 4 8 9 5 5 -3 21 1 37 9 15 7 31 12 36 9 4 -3 8 0 8 5 0 6
9 11 20 11 11 0 20 5 20 11 0 5 4 8 9 5 5 -3 19 3 32 13 13 10 30 16 37 14 6
-3 12 0 12 6 0 6 3 10 8 10 4 -1 10 0 15 1 4 1 13 3 20 4 6 1 11 8 9 15 -2 8
4 10 18 6 13 -4 22 -1 25 8 3 7 12 14 20 15 8 1 21 3 29 4 8 1 14 6 13 12 -1
6 8 12 21 14 12 2 22 8 22 13 0 5 7 9 15 9 8 0 15 5 15 12 0 6 3 9 6 5 3 -3
27 8 54 24 26 16 52 29 59 29 6 0 10 6 8 13 -1 6 4 11 11 9 7 -1 15 5 18 13 3
8 9 13 14 10 4 -2 16 5 28 15 12 11 25 20 31 20 5 0 12 7 15 16 3 8 10 13 15
10 5 -3 11 1 15 9 3 8 11 15 17 15 6 0 22 11 35 26 13 14 24 21 24 17 0 -4 5
0 11 10 5 9 17 17 24 17 8 0 15 5 15 11 0 6 6 9 14 6 10 -4 14 0 11 13 -3 14
1 18 16 15 11 -2 19 2 19 10 0 8 13 22 29 31 17 10 28 21 25 26 -5 7 10 12 29
9 5 -1 6 3 2 9 -3 5 -1 10 5 10 6 0 8 4 5 10 -6 9 8 14 28 11 4 0 7 4 7 9 0 6
22 32 49 59 27 27 47 52 44 55 -4 3 2 6 11 6 13 0 16 5 12 16 -5 12 -2 15 10
10 10 -4 18 0 21 13 3 11 12 22 20 25 8 3 11 11 8 16 -4 6 -1 9 7 8 7 -2 12 3
11 10 -2 6 1 12 7 12 5 0 17 12 25 28 9 15 14 19 11 9 -3 -11 -2 -15 4 -12 6
3 10 12 10 19 0 7 10 23 23 36 12 14 21 28 20 32 -2 4 6 12 17 18 11 6 18 15
15 19 -3 5 2 12 11 15 9 4 14 9 11 13 -4 3 6 17 21 31 15 13 20 21 12 17 -13
-6 -13 -5 0 7 29 26 56 62 40 54 -9 -4 -8 -2 3 7 9 8 17 19 17 26 0 6 5 11 11
11 5 0 8 4 5 9 -3 5 1 12 9 15 8 3 14 11 13 18 -2 7 3 12 10 10 8 -1 11 2 7 8
-4 6 5 26 20 45 14 19 23 35 19 35 -4 0 1 9 10 19 10 11 15 25 10 32 -4 8 -3
10 4 5 8 -5 12 0 12 13 0 12 7 21 15 21 9 0 12 6 9 15 -4 8 -1 15 7 15 7 0 9
3 6 7 -4 3 1 15 10 26 13 15 14 18 3 12 -8 -4 -4 4 9 18 17 19 20 27 10 27
-10 1 -9 4 4 11 9 6 15 14 12 20 -4 5 -1 9 6 9 7 0 10 3 6 6 -3 4 0 19 8 34 8
15 11 31 7 35 -4 5 -2 5 4 2 7 -4 14 0 18 8 3 8 0 15 -7 15 -7 0 -6 4 3 10 8
5 15 13 16 17 0 4 4 16 8 25 4 9 9 24 10 33 1 9 9 21 17 26 12 7 12 9 0 9 -11
0 -9 4 5 15 13 10 14 14 5 15 -10 0 -11 3 -2 13 6 8 8 17 4 20 -3 4 -1 7 5 7
7 0 12 11 12 25 0 14 5 25 11 25 5 0 7 5 4 10 -4 6 -1 17 5 25 10 12 10 15 -1
15 -11 0 -11 2 -1 9 7 4 14 21 16 36 2 16 8 31 15 33 9 3 9 7 0 18 -8 10 -8
14 0 14 6 0 10 3 9 8 -1 4 2 25 7 47 7 35 11 58 14 88 1 5 4 6 9 4 4 -3 6 12
6 34 -1 23 3 39 10 39 6 0 4 5 -4 10 -12 8 -12 10 -1 10 11 0 11 3 0 17 -12
14 -12 16 0 8 11 -6 13 -3 9 13 -4 12 -2 24 3 27 4 3 6 12 3 19 -3 8 -1 17 5
21 8 4 8 12 1 25 -6 10 -6 21 -2 24 11 7 13 57 14 321 0 259 -2 314 -14 321
-5 3 -4 12 3 20 6 8 7 14 2 14 -6 0 -10 12 -11 28 0 74 -2 83 -14 76 -8 -5 -8
-1 1 10 10 12 11 20 4 24 -6 4 -10 28 -9 54 1 32 -2 44 -10 37 -7 -5 -10 2 -9
24 1 18 -5 43 -13 56 -10 17 -10 21 -1 16 8 -6 10 -4 3 6 -4 8 -9 19 -10 24
-1 6 -6 19 -10 29 -6 15 -4 17 7 11 11 -7 12 -6 2 6 -7 9 -14 25 -16 37 -2 12
-7 25 -12 29 -4 5 -5 2 0 -6 5 -8 4 -12 -1 -8 -5 3 -9 18 -8 34 1 15 -3 33 -8
40 -5 7 -7 17 -3 23 3 5 1 10 -5 10 -6 0 -8 5 -5 10 3 6 1 10 -6 10 -7 0 -9 3
-6 7 4 3 1 13 -6 21 -10 13 -9 14 2 8 8 -6 7 0 -4 18 -10 14 -14 26 -10 26 4
0 2 6 -4 13 -6 8 -8 17 -4 20 3 4 2 7 -4 7 -6 0 -9 9 -6 20 4 13 0 20 -9 20
-10 0 -15 9 -14 23 1 12 -2 24 -5 27 -4 3 -9 12 -11 20 -2 8 -8 20 -15 28 -7
7 -9 20 -6 29 4 9 2 14 -3 10 -5 -3 -14 6 -21 19 -6 13 -7 22 -3 19 4 -3 3 6
-3 19 -7 13 -15 22 -19 20 -5 -3 -8 4 -8 15 0 17 -20 60 -48 106 -4 6 -7 15
-7 20 -1 6 -7 9 -14 7 -9 -2 -12 4 -8 18 3 13 0 20 -9 20 -8 0 -13 6 -12 13 2
6 -3 11 -10 9 -9 -2 -11 4 -7 18 3 11 2 20 -4 20 -10 0 -27 39 -23 53 1 5 -2
6 -7 3 -5 -3 -15 2 -22 11 -12 14 -12 16 1 9 8 -4 4 2 -9 13 -13 12 -19 21
-15 21 5 0 4 4 -2 8 -6 4 -19 22 -28 40 -9 17 -21 32 -26 32 -6 0 -10 5 -10
10 0 6 -9 20 -20 32 -11 12 -20 28 -20 35 0 7 -7 13 -15 13 -9 0 -12 6 -8 17
5 13 2 15 -11 10 -9 -4 -15 -3 -11 2 3 5 -4 16 -16 24 -15 11 -17 16 -7 20 8
4 7 6 -5 6 -10 1 -17 4 -15 9 5 10 -60 71 -69 63 -4 -3 -1 3 7 13 8 11 10 17
4 14 -5 -4 -23 9 -39 28 -16 19 -35 34 -43 34 -9 0 -13 3 -9 6 3 3 -21 32 -53
64 -32 32 -63 66 -69 76 -6 11 -11 13 -11 6 0 -8 -7 -6 -21 7 -13 11 -18 24
-14 32 5 7 4 10 -3 5 -6 -3 -22 5 -36 19 -14 14 -30 25 -35 25 -6 0 -15 9 -21
20 -6 11 -17 20 -24 20 -8 0 -16 7 -20 15 -3 9 -12 12 -22 8 -11 -4 -15 -3
-10 5 4 6 -3 16 -16 23 -12 7 -29 18 -36 26 -8 7 -18 10 -24 7 -7 -4 -8 -2 -4
4 4 7 1 12 -8 12 -9 0 -16 7 -16 16 0 8 -4 12 -10 9 -5 -3 -10 -1 -10 4 0 6
-6 11 -12 11 -7 0 -29 14 -48 30 -19 16 -46 30 -59 30 -13 0 -21 3 -18 7 9 9
-24 32 -46 33 -11 0 -15 4 -11 12 5 8 2 9 -9 5 -11 -4 -17 -1 -17 9 0 8 -4 13
-9 9 -6 -3 -14 3 -20 12 -8 14 -10 15 -11 3 0 -12 -2 -12 -9 -2 -4 7 -17 14
-29 15 -11 0 -18 5 -15 11 4 5 -1 7 -11 3 -9 -4 -15 -3 -12 2 6 9 -15 21 -44
27 -8 2 -20 11 -27 20 -10 14 -13 14 -13 3 0 -11 -2 -11 -9 -1 -4 7 -18 14
-30 15 -12 1 -20 6 -17 14 3 7 -1 10 -9 7 -8 -3 -22 1 -31 10 -8 9 -20 13 -26
10 -6 -4 -13 -2 -17 4 -3 5 -17 12 -31 13 -14 2 -27 6 -30 9 -13 13 -51 30
-45 21 3 -6 1 -11 -4 -11 -6 0 -11 5 -11 10 0 6 -9 10 -20 10 -11 0 -20 6 -20
13 0 8 -4 7 -10 -3 -6 -10 -10 -11 -10 -2 0 6 -11 12 -25 12 -14 0 -25 5 -25
11 0 5 -4 7 -10 4 -5 -3 -22 2 -37 12 -21 14 -25 15 -19 3 7 -12 6 -13 -5 -2
-7 6 -21 12 -31 12 -10 0 -18 3 -18 8 0 4 -17 8 -37 10 -20 1 -41 8 -45 15 -6
9 -8 8 -8 -3 0 -12 -2 -12 -9 -2 -4 8 -11 13 -15 13 -28 -4 -46 1 -40 10 4 8
0 8 -15 0 -16 -9 -21 -9 -21 0 0 6 -9 9 -20 6 -10 -3 -27 1 -37 8 -13 9 -22
10 -30 3 -9 -7 -13 -7 -13 0 0 6 -8 9 -17 7 -10 -1 -24 2 -30 8 -9 6 -13 5
-13 -4 -1 -9 -5 -8 -15 5 -8 11 -15 15 -15 9 0 -6 -11 -10 -25 -9 -14 0 -25 4
-25 8 0 4 -7 5 -16 1 -9 -3 -20 0 -25 8 -5 9 -9 10 -9 2 0 -10 -43 -9 -77 2
-7 2 -13 0 -13 -5 0 -6 -5 -10 -11 -10 -5 0 -7 6 -3 13 5 7 0 6 -11 -3 -11 -9
-16 -10 -11 -2 4 7 1 12 -9 12 -10 0 -13 -5 -9 -12 6 -10 4 -10 -8 0 -17 14
-39 13 -50 -3 -5 -6 -8 -6 -8 1 0 8 -43 11 -134 10 -74 0 -133 -3 -131 -6 2
-3 -7 -5 -20 -5 -13 0 -21 3 -18 8 2 4 -1 7 -6 7 -6 0 -11 -4 -11 -8 0 -10
-30 -9 -46 1 -6 3 -14 3 -18 -1z"/>
</g>
</svg>
